<svg xmlns="http://www.w3.org/2000/svg" xmlns:xlink="http://www.w3.org/1999/xlink" width="1000" zoomAndPan="magnify" viewBox="0 0 750 149.999998" height="200" preserveAspectRatio="xMidYMid meet" version="1.0"><defs><g/><clipPath id="5124767ed6"><rect x="0" width="544" y="0" height="144"/></clipPath><clipPath id="1be1a36673"><path d="M 20 2.351562 L 153 2.351562 L 153 140.351562 L 20 140.351562 Z M 20 2.351562 " clip-rule="nonzero"/></clipPath><clipPath id="edde4e9bec"><path d="M 158 60 L 173.25 60 L 173.25 108 L 158 108 Z M 158 60 " clip-rule="nonzero"/></clipPath></defs><g transform="matrix(1, 0, 0, 1, 206, 6)"><g clip-path="url(#5124767ed6)"><g fill="#ffffff" fill-opacity="1"><g transform="translate(1.26958, 119.131211)"><g><path d="M 28.1875 1.09375 C 21.0625 1.09375 16.242188 -0.75 13.734375 -4.4375 C 11.222656 -8.125 9.96875 -13.453125 9.96875 -20.421875 L 9.96875 -47.640625 L 1.34375 -47.640625 L 1.34375 -62.21875 L 9.96875 -62.21875 L 9.96875 -79.609375 L 29.40625 -79.609375 L 29.40625 -62.21875 L 40.234375 -62.21875 L 40.234375 -47.640625 L 29.40625 -47.640625 L 29.40625 -21.875 C 29.40625 -19.519531 29.726562 -17.859375 30.375 -16.890625 C 31.03125 -15.921875 32.144531 -15.332031 33.71875 -15.125 C 35.300781 -14.925781 37.472656 -14.828125 40.234375 -14.828125 L 40.234375 -0.25 C 38.441406 0.0820312 36.675781 0.390625 34.9375 0.671875 C 33.195312 0.953125 30.945312 1.09375 28.1875 1.09375 Z M 28.1875 1.09375 "/></g></g></g><g fill="#ffffff" fill-opacity="1"><g transform="translate(45.746197, 119.131211)"><g><path d="M 35.125 1.9375 C 28.238281 1.9375 22.320312 0.539062 17.375 -2.25 C 12.4375 -5.039062 8.628906 -8.925781 5.953125 -13.90625 C 3.273438 -18.894531 1.9375 -24.628906 1.9375 -31.109375 C 1.9375 -37.429688 3.234375 -43.082031 5.828125 -48.0625 C 8.421875 -53.050781 12.128906 -56.984375 16.953125 -59.859375 C 21.773438 -62.734375 27.46875 -64.171875 34.03125 -64.171875 C 41.15625 -64.171875 47.085938 -62.566406 51.828125 -59.359375 C 56.566406 -56.160156 60.128906 -51.6875 62.515625 -45.9375 C 64.910156 -40.1875 66.109375 -33.539062 66.109375 -26 L 21.390625 -26 C 21.390625 -21.625 22.742188 -18.300781 25.453125 -16.03125 C 28.171875 -13.769531 31.273438 -12.640625 34.765625 -12.640625 C 38.078125 -12.640625 40.601562 -13.285156 42.34375 -14.578125 C 44.09375 -15.878906 45.25 -17.300781 45.8125 -18.84375 L 65.140625 -18.84375 C 63.441406 -12.601562 60.117188 -7.578125 55.171875 -3.765625 C 50.234375 0.0351562 43.550781 1.9375 35.125 1.9375 Z M 21.390625 -37.796875 L 46.671875 -37.796875 C 46.671875 -42.085938 45.492188 -45.328125 43.140625 -47.515625 C 40.796875 -49.703125 37.757812 -50.796875 34.03125 -50.796875 C 30.300781 -50.796875 27.257812 -49.703125 24.90625 -47.515625 C 22.5625 -45.328125 21.390625 -42.085938 21.390625 -37.796875 Z M 21.390625 -37.796875 "/></g></g></g><g fill="#ffffff" fill-opacity="1"><g transform="translate(115.620574, 119.131211)"><g><path d="M 4.734375 0 L 4.734375 -62.21875 L 24.1875 -62.21875 L 24.1875 -52.015625 L 24.421875 -52.015625 C 25.960938 -55.492188 28.03125 -58.242188 30.625 -60.265625 C 33.21875 -62.296875 36.21875 -63.3125 39.625 -63.3125 C 40.507812 -63.3125 41.359375 -63.289062 42.171875 -63.25 C 42.984375 -63.21875 43.914062 -63.078125 44.96875 -62.828125 L 44.96875 -45.8125 L 44.71875 -45.8125 C 41.394531 -46.46875 38.15625 -46.265625 35 -45.203125 C 31.84375 -44.148438 29.25 -42.285156 27.21875 -39.609375 C 25.195312 -36.941406 24.1875 -33.378906 24.1875 -28.921875 L 24.1875 0 Z M 4.734375 0 "/></g></g></g><g fill="#ffffff" fill-opacity="1"><g transform="translate(163.985841, 119.131211)"><g><path d="M 4.734375 0 L 4.734375 -62.21875 L 24.1875 -62.21875 L 24.1875 -53.234375 L 24.421875 -53.234375 C 26.046875 -56.066406 28.519531 -58.597656 31.84375 -60.828125 C 35.164062 -63.054688 39.175781 -64.171875 43.875 -64.171875 C 47.925781 -64.171875 51.347656 -63.15625 54.140625 -61.125 C 56.929688 -59.101562 58.9375 -56.472656 60.15625 -53.234375 L 60.40625 -53.234375 C 63.070312 -56.304688 65.960938 -58.894531 69.078125 -61 C 72.203125 -63.113281 76.273438 -64.171875 81.296875 -64.171875 C 87.535156 -64.171875 92.414062 -62.265625 95.9375 -58.453125 C 99.46875 -54.648438 101.234375 -49.179688 101.234375 -42.046875 L 101.234375 0 L 81.546875 0 L 81.546875 -35.859375 C 81.546875 -40.554688 80.9375 -43.816406 79.71875 -45.640625 C 78.507812 -47.460938 76.160156 -48.375 72.671875 -48.375 C 69.597656 -48.375 67.148438 -47.378906 65.328125 -45.390625 C 63.503906 -43.410156 62.59375 -40.269531 62.59375 -35.96875 L 62.59375 0 L 43.140625 0 L 43.140625 -35.859375 C 43.140625 -40.554688 42.53125 -43.816406 41.3125 -45.640625 C 40.101562 -47.460938 37.753906 -48.375 34.265625 -48.375 C 31.273438 -48.375 28.847656 -47.378906 26.984375 -45.390625 C 25.117188 -43.410156 24.1875 -40.269531 24.1875 -35.96875 L 24.1875 0 Z M 4.734375 0 "/></g></g></g><g fill="#ffffff" fill-opacity="1"><g transform="translate(271.288467, 119.131211)"><g><path d="M 14.46875 -69.640625 C 11.707031 -69.640625 9.394531 -70.367188 7.53125 -71.828125 C 5.664062 -73.285156 4.734375 -75.429688 4.734375 -78.265625 C 4.734375 -81.097656 5.664062 -83.242188 7.53125 -84.703125 C 9.394531 -86.160156 11.707031 -86.890625 14.46875 -86.890625 C 17.21875 -86.890625 19.523438 -86.160156 21.390625 -84.703125 C 23.253906 -83.242188 24.1875 -81.097656 24.1875 -78.265625 C 24.1875 -75.429688 23.253906 -73.285156 21.390625 -71.828125 C 19.523438 -70.367188 17.21875 -69.640625 14.46875 -69.640625 Z M 4.734375 0 L 4.734375 -62.21875 L 24.1875 -62.21875 L 24.1875 0 Z M 4.734375 0 "/></g></g></g><g fill="#ffffff" fill-opacity="1"><g transform="translate(302.033277, 119.131211)"><g><path d="M 4.734375 0 L 4.734375 -62.21875 L 24.1875 -62.21875 L 24.1875 -53.234375 L 24.421875 -53.234375 C 26.046875 -56.066406 28.476562 -58.597656 31.71875 -60.828125 C 34.957031 -63.054688 39.332031 -64.171875 44.84375 -64.171875 C 50.84375 -64.171875 55.703125 -62.265625 59.421875 -58.453125 C 63.148438 -54.648438 65.015625 -49.179688 65.015625 -42.046875 L 65.015625 0 L 45.578125 0 L 45.578125 -35.859375 C 45.578125 -40.554688 44.765625 -43.816406 43.140625 -45.640625 C 41.523438 -47.460938 39.097656 -48.375 35.859375 -48.375 C 32.128906 -48.375 29.25 -47.378906 27.21875 -45.390625 C 25.195312 -43.410156 24.1875 -40.269531 24.1875 -35.96875 L 24.1875 0 Z M 4.734375 0 "/></g></g></g><g fill="#ffffff" fill-opacity="1"><g transform="translate(373.12287, 119.131211)"><g><path d="M 14.46875 -69.640625 C 11.707031 -69.640625 9.394531 -70.367188 7.53125 -71.828125 C 5.664062 -73.285156 4.734375 -75.429688 4.734375 -78.265625 C 4.734375 -81.097656 5.664062 -83.242188 7.53125 -84.703125 C 9.394531 -86.160156 11.707031 -86.890625 14.46875 -86.890625 C 17.21875 -86.890625 19.523438 -86.160156 21.390625 -84.703125 C 23.253906 -83.242188 24.1875 -81.097656 24.1875 -78.265625 C 24.1875 -75.429688 23.253906 -73.285156 21.390625 -71.828125 C 19.523438 -70.367188 17.21875 -69.640625 14.46875 -69.640625 Z M 4.734375 0 L 4.734375 -62.21875 L 24.1875 -62.21875 L 24.1875 0 Z M 4.734375 0 "/></g></g></g><g fill="#ffffff" fill-opacity="1"><g transform="translate(403.867681, 119.131211)"><g><path d="M 10.578125 0 L 10.578125 -47.640625 L 1.34375 -47.640625 L 1.34375 -62.21875 L 10.578125 -62.21875 L 10.578125 -66.484375 C 10.578125 -73.441406 11.832031 -78.765625 14.34375 -82.453125 C 16.851562 -86.140625 21.671875 -87.984375 28.796875 -87.984375 C 31.554688 -87.984375 33.804688 -87.878906 35.546875 -87.671875 C 37.285156 -87.472656 39.046875 -87.171875 40.828125 -86.765625 L 40.828125 -72.1875 C 38.078125 -72.1875 35.910156 -72.082031 34.328125 -71.875 C 32.753906 -71.675781 31.640625 -71.070312 30.984375 -70.0625 C 30.335938 -69.050781 30.015625 -67.328125 30.015625 -64.890625 L 30.015625 -62.21875 L 40.828125 -62.21875 L 40.828125 -47.640625 L 30.015625 -47.640625 L 30.015625 0 Z M 10.578125 0 "/></g></g></g><g fill="#ffffff" fill-opacity="1"><g transform="translate(448.101258, 119.131211)"><g><path d="M 19.203125 21.515625 C 15.796875 21.515625 12.191406 21.109375 8.390625 20.296875 L 8.390625 5.71875 L 8.625 5.71875 C 11.300781 6.28125 13.671875 6.378906 15.734375 6.015625 C 17.804688 5.648438 19.367188 4.695312 20.421875 3.15625 C 21.304688 1.78125 21.6875 0.101562 21.5625 -1.875 C 21.445312 -3.863281 20.90625 -6.238281 19.9375 -9 L -0.359375 -62.21875 L 19.078125 -62.21875 L 33.171875 -21.390625 L 33.421875 -21.390625 L 45.203125 -62.21875 L 64.65625 -62.21875 L 43.515625 1.21875 C 41.722656 6.476562 39.796875 10.585938 37.734375 13.546875 C 35.671875 16.503906 33.160156 18.570312 30.203125 19.75 C 27.242188 20.925781 23.578125 21.515625 19.203125 21.515625 Z M 19.203125 21.515625 "/></g></g></g><g fill="#ffffff" fill-opacity="1"><g transform="translate(514.208463, 119.131211)"><g><path d="M 14.21875 1.09375 C 11.300781 1.09375 8.847656 0.160156 6.859375 -1.703125 C 4.878906 -3.566406 3.890625 -6.078125 3.890625 -9.234375 C 3.890625 -12.316406 4.878906 -14.804688 6.859375 -16.703125 C 8.847656 -18.609375 11.300781 -19.5625 14.21875 -19.5625 C 17.050781 -19.5625 19.476562 -18.609375 21.5 -16.703125 C 23.53125 -14.804688 24.546875 -12.316406 24.546875 -9.234375 C 24.546875 -6.078125 23.53125 -3.566406 21.5 -1.703125 C 19.476562 0.160156 17.050781 1.09375 14.21875 1.09375 Z M 14.21875 1.09375 "/></g></g></g></g></g><g clip-path="url(#1be1a36673)"><path fill="#ffffff" d="M 123.3125 140.402344 L 49.976562 140.402344 C 33.824219 140.402344 20.722656 127.296875 20.722656 111.25 L 20.722656 63.710938 C 20.722656 47.5625 33.824219 34.457031 49.976562 34.457031 L 83.496094 34.457031 L 83.597656 23.285156 C 79.230469 21.964844 75.980469 17.902344 75.980469 13.023438 C 75.980469 7.132812 80.855469 2.359375 86.746094 2.359375 C 92.636719 2.359375 97.511719 7.132812 97.511719 13.023438 C 97.511719 17.902344 94.160156 22.066406 89.691406 23.386719 L 89.589844 34.457031 L 123.3125 34.457031 C 139.363281 34.457031 152.464844 47.5625 152.464844 63.710938 L 152.464844 111.351562 C 152.464844 127.398438 139.363281 140.402344 123.3125 140.402344 Z M 59.117188 94.285156 C 50.484375 94.285156 43.679688 87.480469 43.679688 78.949219 C 43.679688 70.3125 50.484375 63.507812 59.117188 63.507812 C 67.75 63.507812 74.457031 70.3125 74.457031 78.949219 C 74.457031 87.480469 67.75 94.285156 59.117188 94.285156 Z M 59.117188 69.601562 C 53.835938 69.601562 49.773438 73.664062 49.773438 78.949219 C 49.773438 84.128906 53.835938 88.191406 59.117188 88.191406 C 64.296875 88.191406 68.460938 84.128906 68.460938 78.949219 C 68.460938 73.664062 64.296875 69.601562 59.117188 69.601562 Z M 114.273438 93.675781 C 105.640625 93.675781 98.730469 86.769531 98.730469 78.238281 C 98.730469 69.703125 105.640625 62.796875 114.273438 62.796875 C 122.703125 62.796875 129.609375 69.703125 129.609375 78.238281 C 129.609375 86.769531 122.703125 93.675781 114.273438 93.675781 Z M 114.273438 68.890625 C 108.992188 68.890625 104.828125 73.15625 104.828125 78.238281 C 104.828125 83.417969 108.992188 87.683594 114.273438 87.683594 C 119.453125 87.683594 123.515625 83.417969 123.515625 78.238281 C 123.515625 72.953125 119.351562 68.890625 114.273438 68.890625 Z M 85.527344 112.164062 C 79.738281 112.164062 74.660156 109.421875 71.8125 106.984375 C 70.492188 105.867188 70.390625 103.835938 71.507812 102.714844 C 72.628906 101.496094 74.457031 101.292969 75.777344 102.511719 C 76.691406 103.328125 85.527344 110.335938 93.957031 102.613281 C 95.175781 101.496094 97.003906 101.496094 98.324219 102.714844 C 99.441406 104.039062 99.441406 105.867188 98.222656 107.085938 C 93.957031 110.742188 89.589844 112.164062 85.527344 112.164062 Z M 85.527344 112.164062 " fill-opacity="1" fill-rule="evenodd"/></g><path fill="#ffffff" d="M 14.628906 107.796875 L 13.40625 107.796875 C 6.09375 107.796875 0 101.800781 0 94.386719 L 0 73.664062 C 0 66.25 6.09375 60.15625 13.40625 60.15625 L 14.832031 60.15625 C 14.730469 61.273438 14.628906 62.492188 14.628906 63.710938 Z M 14.628906 107.796875 " fill-opacity="1" fill-rule="evenodd"/><g clip-path="url(#edde4e9bec)"><path fill="#ffffff" d="M 159.78125 107.796875 L 158.558594 107.796875 L 158.558594 63.710938 C 158.358594 61.171875 158.355469 60.054688 158.355469 60.054688 L 159.78125 60.054688 C 167.296875 60.054688 173.390625 66.046875 173.390625 73.5625 L 173.390625 94.386719 C 173.390625 101.902344 167.296875 107.796875 159.78125 107.796875 Z M 159.78125 107.796875 " fill-opacity="1" fill-rule="evenodd"/></g></svg>